<svg version="1.1" id="Layer_1" xmlns="http://www.w3.org/2000/svg" xmlns:xlink="http://www.w3.org/1999/xlink" x="0px" y="0px"
	 width="100%" viewBox="0 0 200 200" enable-background="new 0 0 200 200" xml:space="preserve">
<path fill="#000000" opacity="1.000000" stroke="none" 
	d="
M107.000000,201.000000 
	C71.355324,201.000000 36.210648,201.000000 1.032985,201.000000 
	C1.032985,134.397018 1.032985,67.794029 1.032985,1.095516 
	C67.561180,1.095516 134.122543,1.095516 200.841949,1.095516 
	C200.841949,67.666367 200.841949,134.333145 200.841949,201.000000 
	C169.794312,201.000000 138.647156,201.000000 107.000000,201.000000 
M56.274605,112.783768 
	C59.673229,113.455490 63.151848,114.925735 66.450073,114.595306 
	C70.505623,114.189003 70.985420,111.482224 67.988678,108.525436 
	C66.726639,107.280220 64.867477,106.550453 63.858288,105.164978 
	C62.926456,103.885696 62.768467,102.042740 62.269650,100.448051 
	C63.530621,100.147781 64.850700,99.992424 66.036789,99.508583 
	C67.359566,98.968987 68.779976,98.331436 69.703545,97.321167 
	C70.059067,96.932259 69.478882,94.969360 68.784843,94.460808 
	C65.311455,91.915665 56.683369,95.796356 55.995750,99.976227 
	C55.448692,103.301659 54.637974,106.583725 53.080936,109.972198 
	C52.387600,109.153542 51.169426,108.378876 51.096451,107.508224 
	C50.848465,104.549484 51.117836,101.551605 50.979622,98.578430 
	C50.786301,94.419952 48.952862,93.588005 45.567257,95.530075 
	C45.567257,98.821846 45.274418,101.902451 45.651688,104.898682 
	C46.010899,107.751480 46.263435,111.469765 48.083702,113.008774 
	C49.464485,114.176201 53.233772,112.518616 56.274605,112.783768 
M164.964966,108.119736 
	C164.995865,106.136841 164.788712,104.115501 165.101669,102.178169 
	C166.093948,96.035530 165.723145,95.532829 160.441513,95.611778 
	C158.611664,93.950798 157.329651,92.787079 155.687012,91.296028 
	C155.687012,97.226288 155.687012,101.972824 155.687012,106.719353 
	C156.124832,106.768074 156.562653,106.816803 157.000473,106.865524 
	C157.731369,104.434532 158.462265,102.003540 159.193161,99.572556 
	C159.516800,99.624962 159.840454,99.677368 160.164093,99.729774 
	C160.164093,102.820435 160.164093,105.911095 160.036392,109.678123 
	C160.412628,110.484497 160.788849,111.290871 161.026901,112.682144 
	C161.312088,113.148170 161.597275,113.614189 162.251770,114.703033 
	C164.936615,114.575676 167.621445,114.448311 170.306290,114.320953 
	C170.886414,113.418694 171.472565,113.700516 172.041962,114.012909 
	C175.818008,116.084679 179.235397,114.893250 182.563660,112.868156 
	C181.038071,110.411095 179.575424,107.910934 177.942902,105.527115 
	C177.532043,104.927162 176.220810,104.862167 175.949219,104.266136 
	C175.445801,103.161316 174.901138,101.618988 175.322144,100.687576 
	C175.686264,99.882011 177.333633,99.424805 178.473557,99.278030 
	C179.320740,99.168938 180.263611,99.803032 181.853195,100.338158 
	C182.089981,98.349724 182.933075,96.348938 182.275345,95.231628 
	C181.720810,94.289597 179.415070,94.025238 177.898895,94.061668 
	C169.949203,94.252647 167.422729,98.620430 170.690857,105.687805 
	C169.010315,108.282234 167.476334,110.650421 165.457932,113.766441 
	C165.166367,111.535919 165.000732,110.268860 164.964966,108.119736 
M101.698608,97.261421 
	C97.662827,96.554550 93.627037,95.847679 89.166954,94.587036 
	C90.477348,87.893341 96.464249,86.311844 104.029152,91.462494 
	C104.194946,89.633827 104.926895,87.623062 104.324127,87.071846 
	C102.518913,85.421028 100.273399,83.462059 98.048210,83.255409 
	C95.116318,82.983139 92.040344,84.262306 89.002861,84.018921 
	C89.132965,81.725136 88.508766,78.977783 89.556305,77.235641 
	C91.504021,73.996414 89.902557,72.743629 87.463486,71.926941 
	C85.250168,71.185837 82.819405,71.094131 79.999886,70.637672 
	C79.999886,77.467583 80.380463,83.630173 79.817635,89.705360 
	C79.583664,92.230843 77.892433,95.262642 75.899239,96.862099 
	C70.199181,101.436180 70.604172,103.334190 76.230995,106.173042 
	C81.453682,108.807999 79.419937,112.046120 79.857773,115.385117 
	C80.186363,117.890945 80.047585,121.085663 81.522018,122.645302 
	C83.147011,124.364182 86.377464,124.565285 89.571404,125.653366 
	C89.287033,122.576912 89.061348,121.029907 89.022095,119.478180 
	C88.975891,117.651550 89.091301,115.820831 89.861351,114.359108 
	C95.859161,113.924690 101.856979,113.490273 108.219154,113.767166 
	C108.475212,114.673759 108.896446,115.568825 108.960625,116.488792 
	C109.390739,122.654625 111.314095,124.273735 118.232750,123.596611 
	C117.813965,117.141655 114.055336,109.946396 122.701942,104.394485 
	C119.668816,104.159706 118.401337,104.061600 117.012878,103.037483 
	C117.008537,98.902290 116.895950,94.763657 117.027138,90.632774 
	C117.192703,85.420082 117.557098,80.213715 117.979424,74.231628 
	C116.135353,70.551392 110.958633,68.524551 107.500755,70.218079 
	C107.373848,70.280235 107.772881,71.416267 108.003853,72.976601 
	C107.824852,81.006622 107.645844,89.036644 106.865448,96.927979 
	C105.523430,97.612617 104.181404,98.297256 102.638268,99.084496 
	C102.606720,99.044182 102.214272,98.542572 101.698608,97.261421 
M122.067444,113.819412 
	C126.020729,115.769905 126.883064,115.574921 128.022339,112.077423 
	C128.929108,109.293709 129.584000,106.427948 130.350708,103.598610 
	C130.998398,104.871605 130.940857,106.029060 131.007767,107.179283 
	C131.429611,114.430397 133.277130,115.643234 140.182922,113.533760 
	C140.960480,113.296242 142.115555,114.086380 143.028732,114.535782 
	C148.042343,117.003128 152.664444,116.198654 155.215302,112.162888 
	C155.642532,111.486946 155.177673,110.247169 155.198914,110.642204 
	C151.825806,111.063759 147.486557,112.585892 146.720078,111.525505 
	C143.982742,107.738548 149.052902,107.797348 150.546158,105.949753 
	C151.152008,105.200165 151.546600,104.282310 152.133377,103.514427 
	C154.478745,100.445213 154.015091,97.116661 151.738785,94.687263 
	C150.490921,93.355499 147.054733,92.475639 145.656158,93.261711 
	C143.604965,94.414574 142.076706,97.069313 141.106888,99.408081 
	C140.203491,101.586723 140.502258,104.232918 139.928391,106.589661 
	C139.521606,108.260185 138.543213,109.791512 137.819977,111.384979 
	C137.188126,111.184212 136.556290,110.983452 135.924454,110.782692 
	C136.095306,106.887909 136.580109,102.970856 136.306061,99.107635 
	C136.166748,97.143547 134.661499,95.276344 133.773727,93.365334 
	C132.222900,94.450706 130.358688,95.282730 129.215118,96.697327 
	C128.202332,97.950142 127.991081,99.850937 127.425987,101.465675 
	C127.118591,95.238770 127.514687,89.135147 128.024948,83.041092 
	C128.535156,76.947502 128.373230,76.798775 122.041374,79.783089 
	C122.085754,90.864403 122.130142,101.945709 122.067444,113.819412 
M41.236759,105.443962 
	C42.056904,104.919426 42.877045,104.394897 43.086922,104.260674 
	C42.307571,102.132027 41.214451,100.399048 41.107269,98.607079 
	C40.839119,94.124039 41.040333,89.614128 41.011948,85.115250 
	C40.977947,79.726631 39.629822,78.843521 34.983494,80.360657 
	C34.983494,83.691460 34.983494,86.766289 34.983494,89.841110 
	C34.983494,93.132736 34.983494,96.424362 34.983494,100.273590 
	C30.342962,98.716591 26.266672,97.348907 22.018871,95.923676 
	C22.018871,92.833054 21.547211,89.417854 22.126579,86.191383 
	C23.055262,81.019592 19.916023,80.685417 16.014557,80.094910 
	C16.014557,84.581329 16.272064,88.754311 15.892870,92.868599 
	C15.732222,94.611649 14.624715,96.719986 13.264238,97.807335 
	C10.268923,100.201294 9.880972,102.428642 13.268875,103.963470 
	C16.349457,105.359062 16.287069,107.575668 15.884881,109.999435 
	C14.964314,115.547165 15.562481,116.316994 22.020111,116.598770 
	C22.020111,113.941292 21.797096,111.267807 22.121283,108.662407 
	C22.266920,107.491966 23.263514,105.926857 24.292833,105.455482 
	C28.276329,103.631264 34.113373,107.026665 35.040840,111.260315 
	C35.682674,114.190163 36.593739,117.175743 41.050964,115.288383 
	C41.050964,112.238007 41.050964,109.251190 41.236759,105.443962 
z"/>
<path fill="#EB252D" opacity="1.000000" stroke="none" 
	d="
M122.145996,78.809120 
	C128.373230,76.798775 128.535156,76.947502 128.024948,83.041092 
	C127.514687,89.135147 127.118591,95.238770 127.425987,101.465675 
	C127.991081,99.850937 128.202332,97.950142 129.215118,96.697327 
	C130.358688,95.282730 132.222900,94.450706 133.773727,93.365341 
	C134.661499,95.276344 136.166748,97.143547 136.306061,99.107635 
	C136.580109,102.970856 136.095306,106.887909 135.924454,110.782692 
	C136.556290,110.983452 137.188126,111.184212 137.819977,111.384979 
	C138.543213,109.791512 139.521606,108.260185 139.928391,106.589661 
	C140.502258,104.232918 140.203491,101.586723 141.106888,99.408081 
	C142.076706,97.069313 143.604965,94.414574 145.656158,93.261711 
	C147.054733,92.475639 150.490921,93.355499 151.738785,94.687263 
	C154.015091,97.116661 154.478745,100.445213 152.133377,103.514427 
	C151.546600,104.282310 151.152008,105.200165 150.546158,105.949753 
	C149.052902,107.797348 143.982742,107.738548 146.720078,111.525505 
	C147.486557,112.585892 151.825806,111.063759 155.198914,110.642204 
	C155.177673,110.247169 155.642532,111.486946 155.215302,112.162888 
	C152.664444,116.198654 148.042343,117.003128 143.028732,114.535782 
	C142.115555,114.086380 140.960480,113.296242 140.182922,113.533760 
	C133.277130,115.643234 131.429611,114.430397 131.007767,107.179283 
	C130.940857,106.029060 130.998398,104.871605 130.350708,103.598610 
	C129.584000,106.427948 128.929108,109.293709 128.022339,112.077423 
	C126.883064,115.574921 126.020729,115.769905 122.373405,113.089302 
	C122.779610,105.248856 122.994545,98.137581 122.935822,91.028557 
	C122.902153,86.953514 122.424026,82.882141 122.145996,78.809120 
z"/>
<path fill="#EB2129" opacity="1.000000" stroke="none" 
	d="
M41.143860,105.854172 
	C41.050964,109.251190 41.050964,112.238007 41.050964,115.288383 
	C36.593739,117.175743 35.682674,114.190163 35.040840,111.260315 
	C34.113373,107.026665 28.276329,103.631264 24.292833,105.455482 
	C23.263514,105.926857 22.266920,107.491966 22.121283,108.662407 
	C21.797096,111.267807 22.020111,113.941292 22.020111,116.598770 
	C15.562481,116.316994 14.964314,115.547165 15.884881,109.999435 
	C16.287069,107.575668 16.349457,105.359062 13.268875,103.963470 
	C9.880972,102.428642 10.268923,100.201294 13.264238,97.807335 
	C14.624715,96.719986 15.732222,94.611649 15.892870,92.868599 
	C16.272064,88.754311 16.014557,84.581329 16.014557,80.094910 
	C19.916023,80.685417 23.055262,81.019592 22.126579,86.191383 
	C21.547211,89.417854 22.018871,92.833054 22.018871,95.923676 
	C26.266672,97.348907 30.342962,98.716591 34.983494,100.273590 
	C34.983494,96.424362 34.983494,93.132736 34.983494,89.841110 
	C34.983494,86.766289 34.983494,83.691460 34.983494,80.360657 
	C39.629822,78.843521 40.977947,79.726631 41.011948,85.115250 
	C41.040333,89.614128 40.839119,94.124039 41.107269,98.607079 
	C41.214451,100.399048 42.307571,102.132027 43.086922,104.260674 
	C42.877045,104.394897 42.056904,104.919426 41.143860,105.854172 
M22.415525,103.768349 
	C24.931396,103.568649 27.447268,103.368942 30.505730,102.786659 
	C27.819538,101.835487 25.133345,100.884308 22.178005,99.837830 
	C22.178005,101.400475 22.178005,102.205566 22.415525,103.768349 
z"/>
<path fill="#F8C5C7" opacity="1.000000" stroke="none" 
	d="
M89.136620,113.991890 
	C89.091301,115.820831 88.975891,117.651550 89.022095,119.478180 
	C89.061348,121.029907 89.287033,122.576912 89.571404,125.653366 
	C86.377464,124.565285 83.147011,124.364182 81.522018,122.645302 
	C80.047585,121.085663 80.186363,117.890945 79.857773,115.385117 
	C79.419937,112.046120 81.453682,108.807999 76.230995,106.173042 
	C70.604172,103.334190 70.199181,101.436180 75.899239,96.862099 
	C77.892433,95.262642 79.583664,92.230843 79.817635,89.705360 
	C80.380463,83.630173 79.999886,77.467583 79.999886,70.637672 
	C82.819405,71.094131 85.250168,71.185837 87.463486,71.926941 
	C89.902557,72.743629 91.504021,73.996414 89.556305,77.235641 
	C88.508766,78.977783 89.132965,81.725136 88.739311,84.667816 
	C84.122589,91.142746 84.504578,94.887733 89.920631,99.482124 
	C81.256042,104.567688 81.101250,107.432549 89.136620,113.991890 
z"/>
<path fill="#F8C4C6" opacity="1.000000" stroke="none" 
	d="
M117.133865,103.963493 
	C118.401337,104.061600 119.668816,104.159706 122.701942,104.394485 
	C114.055336,109.946396 117.813965,117.141655 118.232750,123.596611 
	C111.314095,124.273735 109.390739,122.654625 108.960625,116.488792 
	C108.896446,115.568825 108.475212,114.673759 108.093994,113.021835 
	C107.932968,108.887772 107.897087,105.499031 108.190750,101.829453 
	C108.680321,93.426407 108.906204,85.304543 108.947083,77.181755 
	C108.955681,75.473541 108.284668,73.761902 107.926811,72.051842 
	C107.772881,71.416267 107.373848,70.280235 107.500755,70.218079 
	C110.958633,68.524551 116.135353,70.551392 117.526825,74.728622 
	C116.716728,76.239494 116.061630,77.249794 116.049370,78.267830 
	C115.960411,85.650528 115.951187,93.035469 116.051582,100.417870 
	C116.067711,101.604431 116.756195,102.781845 117.133865,103.963493 
z"/>
<path fill="#EA272F" opacity="1.000000" stroke="none" 
	d="
M107.861214,102.110298 
	C107.897087,105.499031 107.932968,108.887772 107.911819,112.666176 
	C101.856979,113.490273 95.859161,113.924690 89.498985,114.175499 
	C81.101250,107.432549 81.256042,104.567688 89.920631,99.482124 
	C84.504578,94.887733 84.122589,91.142746 88.751038,85.095581 
	C92.040344,84.262306 95.116318,82.983139 98.048210,83.255409 
	C100.273399,83.462059 102.518913,85.421028 104.324127,87.071846 
	C104.926895,87.623062 104.194946,89.633827 104.029152,91.462494 
	C96.464249,86.311844 90.477348,87.893341 89.540764,95.216202 
	C93.883659,96.577232 97.852737,97.309097 101.821823,98.040962 
	C102.214272,98.542572 102.606720,99.044182 102.638268,99.084496 
	C104.181404,98.297256 105.523430,97.612617 107.085518,97.416306 
	C107.490799,99.306519 107.676010,100.708412 107.861214,102.110298 
M98.971825,109.518318 
	C99.003990,109.351082 99.036156,109.183838 99.698708,109.034958 
	C100.137138,108.412811 100.575562,107.790665 101.596275,106.869591 
	C102.972557,105.544167 104.814453,104.074249 102.226059,102.433746 
	C99.383087,100.631889 91.684845,103.583694 90.054260,107.496605 
	C90.639450,107.988556 91.224648,108.480499 91.118904,108.985786 
	C90.537613,109.085098 89.956314,109.184402 88.821587,109.378258 
	C92.446594,112.094566 95.552864,112.763786 98.971825,109.518318 
z"/>
<path fill="#EC262E" opacity="1.000000" stroke="none" 
	d="
M161.165085,112.097244 
	C160.788849,111.290871 160.412628,110.484497 160.489471,109.339462 
	C162.240051,109.001129 163.537582,109.001465 164.835098,109.001793 
	C165.000732,110.268860 165.166367,111.535919 165.457932,113.766441 
	C167.476334,110.650421 169.010315,108.282234 170.690857,105.687805 
	C167.422729,98.620430 169.949203,94.252647 177.898895,94.061668 
	C179.415070,94.025238 181.720810,94.289597 182.275345,95.231628 
	C182.933075,96.348938 182.089981,98.349724 181.853195,100.338158 
	C180.263611,99.803032 179.320740,99.168938 178.473557,99.278030 
	C177.333633,99.424805 175.686264,99.882011 175.322144,100.687576 
	C174.901138,101.618988 175.445801,103.161316 175.949219,104.266136 
	C176.220810,104.862167 177.532043,104.927162 177.942902,105.527115 
	C179.575424,107.910934 181.038071,110.411095 182.563660,112.868156 
	C179.235397,114.893250 175.818008,116.084679 172.041962,114.012909 
	C171.472565,113.700516 170.886414,113.418694 170.306290,114.320953 
	C167.621445,114.448311 164.936615,114.575676 162.089203,114.109406 
	C161.672775,113.042931 161.418930,112.570091 161.165085,112.097244 
z"/>
<path fill="#EB2A32" opacity="1.000000" stroke="none" 
	d="
M53.944305,109.885040 
	C54.637974,106.583725 55.448692,103.301659 55.995750,99.976227 
	C56.683369,95.796356 65.311455,91.915665 68.784843,94.460808 
	C69.478882,94.969360 70.059067,96.932259 69.703545,97.321167 
	C68.779976,98.331436 67.359566,98.968987 66.036789,99.508583 
	C64.850700,99.992424 63.530621,100.147781 62.269650,100.448051 
	C62.768467,102.042740 62.926456,103.885696 63.858288,105.164978 
	C64.867477,106.550453 66.726639,107.280220 67.988678,108.525436 
	C70.985420,111.482224 70.505623,114.189003 66.450073,114.595306 
	C63.151848,114.925735 59.673229,113.455490 56.080574,112.114059 
	C55.239128,110.924576 54.591717,110.404808 53.944305,109.885040 
M58.419098,108.481163 
	C58.419098,108.481163 58.519444,108.423317 58.419098,108.481163 
z"/>
<path fill="#EB262D" opacity="1.000000" stroke="none" 
	d="
M164.900024,108.560760 
	C163.537582,109.001465 162.240051,109.001129 160.553314,109.001282 
	C160.164093,105.911095 160.164093,102.820435 160.164093,99.729774 
	C159.840454,99.677368 159.516800,99.624962 159.193161,99.572556 
	C158.462265,102.003540 157.731369,104.434532 157.000473,106.865524 
	C156.562653,106.816803 156.124832,106.768074 155.687012,106.719353 
	C155.687012,101.972824 155.687012,97.226288 155.687012,91.296028 
	C157.329651,92.787079 158.611664,93.950798 160.441513,95.611778 
	C165.723145,95.532829 166.093948,96.035530 165.101669,102.178169 
	C164.788712,104.115501 164.995865,106.136841 164.900024,108.560760 
z"/>
<path fill="#EA262E" opacity="1.000000" stroke="none" 
	d="
M53.512619,109.928619 
	C54.591717,110.404808 55.239128,110.924576 55.913383,111.781219 
	C53.233772,112.518616 49.464485,114.176201 48.083702,113.008774 
	C46.263435,111.469765 46.010899,107.751480 45.651688,104.898682 
	C45.274418,101.902451 45.567257,98.821846 45.567257,95.530075 
	C48.952862,93.588005 50.786301,94.419952 50.979622,98.578430 
	C51.117836,101.551605 50.848465,104.549484 51.096451,107.508224 
	C51.169426,108.378876 52.387600,109.153542 53.512619,109.928619 
z"/>
<path fill="#D1898C" opacity="1.000000" stroke="none" 
	d="
M122.093689,79.296104 
	C122.424026,82.882141 122.902153,86.953514 122.935822,91.028557 
	C122.994545,98.137581 122.779610,105.248856 122.426941,112.693108 
	C122.130142,101.945709 122.085754,90.864403 122.093689,79.296104 
z"/>
<path fill="#F3D0D2" opacity="1.000000" stroke="none" 
	d="
M117.073372,103.500488 
	C116.756195,102.781845 116.067711,101.604431 116.051582,100.417870 
	C115.951187,93.035469 115.960411,85.650528 116.049370,78.267830 
	C116.061630,77.249794 116.716728,76.239494 117.454971,75.115112 
	C117.557098,80.213715 117.192703,85.420082 117.027138,90.632774 
	C116.895950,94.763657 117.008537,98.902290 117.073372,103.500488 
z"/>
<path fill="#F5EFEF" opacity="1.000000" stroke="none" 
	d="
M108.190750,101.829453 
	C107.676010,100.708412 107.490799,99.306519 107.386215,97.485649 
	C107.645844,89.036644 107.824852,81.006622 107.965332,72.514221 
	C108.284668,73.761902 108.955681,75.473541 108.947083,77.181755 
	C108.906204,85.304543 108.680321,93.426407 108.190750,101.829453 
z"/>
<path fill="#F4C3C4" opacity="1.000000" stroke="none" 
	d="
M101.760216,97.651192 
	C97.852737,97.309097 93.883659,96.577232 89.752914,95.493088 
	C93.627037,95.847679 97.662827,96.554550 101.760216,97.651192 
z"/>
<path fill="#EB262D" opacity="1.000000" stroke="none" 
	d="
M161.095993,112.389694 
	C161.418930,112.570091 161.672775,113.042931 161.904541,113.797989 
	C161.597275,113.614189 161.312088,113.148170 161.095993,112.389694 
z"/>
<path fill="#000000" opacity="1.000000" stroke="none" 
	d="
M22.178005,103.010651 
	C22.178005,102.205566 22.178005,101.400475 22.178005,99.837830 
	C25.133345,100.884308 27.819538,101.835487 29.802666,102.906570 
	C26.792402,103.021210 24.485203,103.015930 22.178005,103.010651 
z"/>
<path fill="#F4F3F3" opacity="1.000000" stroke="none" 
	d="
M22.296764,103.389496 
	C24.485203,103.015930 26.792402,103.021210 29.531370,103.097862 
	C27.447268,103.368942 24.931396,103.568649 22.296764,103.389496 
z"/>
<path fill="#000000" opacity="1.000000" stroke="none" 
	d="
M90.014481,106.859520 
	C91.684845,103.583694 99.383087,100.631889 102.226059,102.433746 
	C104.814453,104.074249 102.972557,105.544167 100.849373,106.944733 
	C96.739807,106.966423 93.377144,106.912971 90.014481,106.859520 
z"/>
<path fill="#FAC5C7" opacity="1.000000" stroke="none" 
	d="
M90.034370,107.178062 
	C93.377144,106.912971 96.739807,106.966423 100.558228,107.094200 
	C100.575562,107.790665 100.137138,108.412811 98.945847,109.021927 
	C96.158737,109.052956 94.124496,109.097000 91.989365,109.150085 
	C91.888481,109.159134 91.809845,108.972443 91.809845,108.972443 
	C91.224648,108.480499 90.639450,107.988556 90.034370,107.178062 
z"/>
<path fill="#000000" opacity="1.000000" stroke="none" 
	d="
M98.816185,110.004959 
	C95.552864,112.763786 92.446594,112.094566 88.821587,109.378258 
	C89.956314,109.184402 90.537613,109.085098 91.464371,108.979111 
	C91.809845,108.972443 91.888481,109.159134 92.139862,109.512756 
	C94.532883,109.912575 96.674538,109.958771 98.816185,110.004959 
z"/>
<path fill="#F8F6F6" opacity="1.000000" stroke="none" 
	d="
M98.894005,109.761642 
	C96.674538,109.958771 94.532883,109.912575 92.240738,109.503708 
	C94.124496,109.097000 96.158737,109.052956 98.630661,109.012741 
	C99.036156,109.183838 99.003990,109.351082 98.894005,109.761642 
z"/>
<path fill="#EA262E" opacity="1.000000" stroke="none" 
	d="
M58.469269,108.452240 
	C58.519444,108.423317 58.419098,108.481163 58.469269,108.452240 
z"/>
</svg>